<svg width="573" height="40" viewBox="0 0 573 40" fill="none" xmlns="http://www.w3.org/2000/svg">
<path d="M21.5303 4.62954C15.6508 3.73537 10.1268 7.55953 8.9411 13.3419C8.73016 14.3752 8.41272 15.2117 7.9732 15.8988C7.93414 15.9608 7.89898 16.0258 7.86871 16.0927L5.73864 20.8329C5.53643 21.2837 5.56866 21.8042 5.82458 22.2262C6.08142 22.649 6.52874 22.9176 7.02197 22.946L9.44897 23.0837V25.7597C9.44897 27.087 10.5282 28.1662 11.8545 28.1662H13.2267V31.3658C13.2267 32.194 13.8987 32.8659 14.7269 32.8659H24.7748C25.603 32.8659 26.275 32.194 26.275 31.3658C26.275 28.7542 27.0993 24.7928 28.9393 21.8277C28.9403 21.8267 28.9403 21.8257 28.9413 21.8247C30.625 19.3694 31.2355 16.3764 30.6582 13.3888C30.6582 13.3883 30.6582 13.3883 30.6582 13.3883C29.7812 8.84871 26.1129 5.32882 21.5303 4.62954ZM26.442 20.1639C26.4176 20.1991 26.3951 20.2357 26.3736 20.2728C24.7397 22.9167 23.6087 26.5391 23.3372 29.8656H16.227V27.5714C16.227 26.2451 15.1478 25.1659 13.8206 25.1659H12.4493V22.5221C12.4493 21.2475 11.4521 20.1927 10.1795 20.12L9.36888 20.0741L10.5624 17.418C11.1718 16.437 11.6035 15.2991 11.8808 13.944C12.7452 9.72871 16.7925 6.93934 21.0771 7.59565C24.3568 8.09571 27.0846 10.7122 27.7126 13.9572C28.1385 16.1649 27.6872 18.3693 26.442 20.1639ZM4.84497 27.4015C4.84497 30.102 7.04248 32.2995 9.74298 32.2995C10.5712 32.2995 11.2431 31.6275 11.2431 30.7993C11.2431 29.9711 10.5712 29.2992 9.74298 29.2992C8.69696 29.2992 7.84527 28.4475 7.84527 27.4015C7.84527 26.5733 7.17333 25.9013 6.34515 25.9013C5.5169 25.9013 4.84497 26.5733 4.84497 27.4015Z" fill="#F1BF5A"/>
<path d="M3.14447 27.2305C2.31628 27.2305 1.64429 27.9025 1.64429 28.7306C1.64429 32.4634 4.68079 35.4999 8.4126 35.4999C9.24085 35.4999 9.91278 34.828 9.91278 33.9998C9.91278 33.1716 9.24084 32.4996 8.4126 32.4996C6.33527 32.4996 4.64466 30.809 4.64466 28.7307C4.64465 27.9025 3.97271 27.2305 3.14447 27.2305Z" fill="#F1BF5A"/>
<path d="M43.6664 26V14.3636H47.5982C48.5111 14.3636 49.2573 14.5284 49.8369 14.858C50.4202 15.1837 50.852 15.625 51.1323 16.1818C51.4126 16.7386 51.5528 17.3598 51.5528 18.0455C51.5528 18.7311 51.4126 19.3542 51.1323 19.9148C50.8558 20.4754 50.4278 20.9223 49.8482 21.2557C49.2687 21.5852 48.5263 21.75 47.621 21.75H44.8028V20.5H47.5755C48.2005 20.5 48.7024 20.392 49.0812 20.1761C49.46 19.9602 49.7346 19.6686 49.9051 19.3011C50.0793 18.9299 50.1664 18.5114 50.1664 18.0455C50.1664 17.5795 50.0793 17.1629 49.9051 16.7955C49.7346 16.428 49.4581 16.1402 49.0755 15.9318C48.6929 15.7197 48.1854 15.6136 47.5528 15.6136H45.0755V26H43.6664ZM59.1408 22.4318V17.2727H60.4818V26H59.1408V24.5227H59.0499C58.8454 24.9659 58.5272 25.3428 58.0954 25.6534C57.6636 25.9602 57.1181 26.1136 56.459 26.1136C55.9136 26.1136 55.4287 25.9943 55.0045 25.7557C54.5802 25.5133 54.2469 25.1496 54.0045 24.6648C53.7621 24.1761 53.6408 23.5606 53.6408 22.8182V17.2727H54.9818V22.7273C54.9818 23.3636 55.1598 23.8712 55.5158 24.25C55.8757 24.6288 56.334 24.8182 56.8908 24.8182C57.2242 24.8182 57.5632 24.733 57.9079 24.5625C58.2564 24.392 58.548 24.1307 58.7829 23.7784C59.0215 23.4261 59.1408 22.9773 59.1408 22.4318ZM63.1195 26V14.3636H64.4604V18.6591H64.5741C64.6726 18.5076 64.8089 18.3144 64.9832 18.0795C65.1612 17.8409 65.415 17.6288 65.7445 17.4432C66.0779 17.2538 66.5286 17.1591 67.0968 17.1591C67.8317 17.1591 68.4794 17.3428 69.04 17.7102C69.6006 18.0777 70.0381 18.5985 70.3525 19.2727C70.6669 19.947 70.8241 20.7424 70.8241 21.6591C70.8241 22.5833 70.6669 23.3845 70.3525 24.0625C70.0381 24.7367 69.6025 25.2595 69.0457 25.6307C68.4889 25.9981 67.8468 26.1818 67.1195 26.1818C66.5589 26.1818 66.1101 26.089 65.7729 25.9034C65.4358 25.714 65.1764 25.5 64.9945 25.2614C64.8127 25.0189 64.6726 24.8182 64.5741 24.6591H64.415V26H63.1195ZM64.4377 21.6364C64.4377 22.2955 64.5343 22.8769 64.7275 23.3807C64.9207 23.8807 65.2029 24.2727 65.5741 24.5568C65.9453 24.8371 66.3998 24.9773 66.9377 24.9773C67.4983 24.9773 67.9661 24.8295 68.3411 24.5341C68.7199 24.2348 69.004 23.8333 69.1934 23.3295C69.3866 22.822 69.4832 22.2576 69.4832 21.6364C69.4832 21.0227 69.3885 20.4697 69.1991 19.9773C69.0135 19.4811 68.7313 19.089 68.3525 18.8011C67.9775 18.5095 67.5059 18.3636 66.9377 18.3636C66.3923 18.3636 65.9339 18.5019 65.5627 18.7784C65.1915 19.0511 64.9112 19.4337 64.7218 19.9261C64.5324 20.4148 64.4377 20.9848 64.4377 21.6364ZM74.2161 14.3636V26H72.8752V14.3636H74.2161ZM76.6721 26V17.2727H78.013V26H76.6721ZM77.3539 15.8182C77.0926 15.8182 76.8672 15.7292 76.6778 15.5511C76.4922 15.3731 76.3994 15.1591 76.3994 14.9091C76.3994 14.6591 76.4922 14.4451 76.6778 14.267C76.8672 14.089 77.0926 14 77.3539 14C77.6153 14 77.8388 14.089 78.0244 14.267C78.2138 14.4451 78.3085 14.6591 78.3085 14.9091C78.3085 15.1591 78.2138 15.3731 78.0244 15.5511C77.8388 15.7292 77.6153 15.8182 77.3539 15.8182ZM84.0144 26.1818C83.1962 26.1818 82.4917 25.9886 81.9008 25.6023C81.3099 25.2159 80.8553 24.6837 80.5372 24.0057C80.219 23.3277 80.0599 22.553 80.0599 21.6818C80.0599 20.7955 80.2228 20.0133 80.5485 19.3352C80.8781 18.6534 81.3364 18.1212 81.9235 17.7386C82.5144 17.3523 83.2038 17.1591 83.9917 17.1591C84.6053 17.1591 85.1584 17.2727 85.6508 17.5C86.1432 17.7273 86.5466 18.0455 86.861 18.4545C87.1754 18.8636 87.3705 19.3409 87.4462 19.8864H86.1053C86.0031 19.4886 85.7758 19.1364 85.4235 18.8295C85.075 18.5189 84.6053 18.3636 84.0144 18.3636C83.4917 18.3636 83.0334 18.5 82.6394 18.7727C82.2493 19.0417 81.9444 19.4223 81.7247 19.9148C81.5087 20.4034 81.4008 20.9773 81.4008 21.6364C81.4008 22.3106 81.5069 22.8977 81.719 23.3977C81.9349 23.8977 82.2379 24.286 82.6281 24.5625C83.022 24.839 83.4841 24.9773 84.0144 24.9773C84.3629 24.9773 84.6792 24.9167 84.9633 24.7955C85.2474 24.6742 85.4879 24.5 85.6849 24.2727C85.8819 24.0455 86.022 23.7727 86.1053 23.4545H87.4462C87.3705 23.9697 87.183 24.4337 86.8837 24.8466C86.5883 25.2557 86.1962 25.5814 85.7076 25.8239C85.2228 26.0625 84.6584 26.1818 84.0144 26.1818ZM100.452 17.2727C100.384 16.697 100.107 16.25 99.6224 15.9318C99.1375 15.6136 98.5428 15.4545 97.8383 15.4545C97.3231 15.4545 96.8724 15.5379 96.486 15.7045C96.1034 15.8712 95.8042 16.1004 95.5883 16.392C95.3762 16.6837 95.2701 17.0152 95.2701 17.3864C95.2701 17.697 95.344 17.964 95.4917 18.1875C95.6432 18.4072 95.8364 18.5909 96.0712 18.7386C96.3061 18.8826 96.5523 19.0019 96.8099 19.0966C97.0675 19.1875 97.3042 19.2614 97.5201 19.3182L98.7019 19.6364C99.005 19.7159 99.3421 19.8258 99.7133 19.9659C100.088 20.1061 100.446 20.2973 100.787 20.5398C101.132 20.7784 101.416 21.0852 101.639 21.4602C101.863 21.8352 101.975 22.2955 101.975 22.8409C101.975 23.4697 101.81 24.0379 101.48 24.5455C101.155 25.053 100.677 25.4564 100.049 25.7557C99.4235 26.0549 98.664 26.2045 97.7701 26.2045C96.9368 26.2045 96.2152 26.0701 95.6053 25.8011C94.9993 25.5322 94.522 25.1572 94.1735 24.6761C93.8288 24.1951 93.6337 23.6364 93.5883 23H95.0428C95.0807 23.4394 95.2284 23.803 95.486 24.0909C95.7474 24.375 96.0769 24.5871 96.4747 24.7273C96.8762 24.8636 97.308 24.9318 97.7701 24.9318C98.308 24.9318 98.7909 24.8447 99.219 24.6705C99.647 24.4924 99.986 24.2462 100.236 23.9318C100.486 23.6136 100.611 23.2424 100.611 22.8182C100.611 22.4318 100.503 22.1174 100.287 21.875C100.071 21.6326 99.7872 21.4356 99.4349 21.2841C99.0826 21.1326 98.7019 21 98.2928 20.8864L96.861 20.4773C95.9519 20.2159 95.2322 19.8428 94.7019 19.358C94.1716 18.8731 93.9065 18.2386 93.9065 17.4545C93.9065 16.803 94.0826 16.2348 94.4349 15.75C94.7909 15.2614 95.2682 14.8826 95.8667 14.6136C96.469 14.3409 97.1413 14.2045 97.8837 14.2045C98.6337 14.2045 99.3004 14.339 99.8837 14.608C100.467 14.8731 100.929 15.2367 101.27 15.6989C101.615 16.161 101.797 16.6856 101.816 17.2727H100.452ZM104.11 29.2727V17.2727H105.405V18.6591H105.564C105.663 18.5076 105.799 18.3144 105.973 18.0795C106.151 17.8409 106.405 17.6288 106.735 17.4432C107.068 17.2538 107.519 17.1591 108.087 17.1591C108.822 17.1591 109.469 17.3428 110.03 17.7102C110.591 18.0777 111.028 18.5985 111.343 19.2727C111.657 19.947 111.814 20.7424 111.814 21.6591C111.814 22.5833 111.657 23.3845 111.343 24.0625C111.028 24.7367 110.593 25.2595 110.036 25.6307C109.479 25.9981 108.837 26.1818 108.11 26.1818C107.549 26.1818 107.1 26.089 106.763 25.9034C106.426 25.714 106.166 25.5 105.985 25.2614C105.803 25.0189 105.663 24.8182 105.564 24.6591H105.451V29.2727H104.11ZM105.428 21.6364C105.428 22.2955 105.524 22.8769 105.718 23.3807C105.911 23.8807 106.193 24.2727 106.564 24.5568C106.935 24.8371 107.39 24.9773 107.928 24.9773C108.488 24.9773 108.956 24.8295 109.331 24.5341C109.71 24.2348 109.994 23.8333 110.183 23.3295C110.377 22.822 110.473 22.2576 110.473 21.6364C110.473 21.0227 110.379 20.4697 110.189 19.9773C110.004 19.4811 109.721 19.089 109.343 18.8011C108.968 18.5095 108.496 18.3636 107.928 18.3636C107.382 18.3636 106.924 18.5019 106.553 18.7784C106.182 19.0511 105.901 19.4337 105.712 19.9261C105.522 20.4148 105.428 20.9848 105.428 21.6364ZM117.519 26.1818C116.678 26.1818 115.952 25.9962 115.343 25.625C114.736 25.25 114.269 24.7273 113.939 24.0568C113.613 23.3826 113.451 22.5985 113.451 21.7045C113.451 20.8106 113.613 20.0227 113.939 19.3409C114.269 18.6553 114.727 18.1212 115.314 17.7386C115.905 17.3523 116.594 17.1591 117.382 17.1591C117.837 17.1591 118.286 17.2348 118.729 17.3864C119.172 17.5379 119.576 17.7841 119.939 18.125C120.303 18.4621 120.593 18.9091 120.808 19.4659C121.024 20.0227 121.132 20.7083 121.132 21.5227V22.0909H114.405V20.9318H119.769C119.769 20.4394 119.67 20 119.473 19.6136C119.28 19.2273 119.004 18.9223 118.644 18.6989C118.288 18.4754 117.867 18.3636 117.382 18.3636C116.848 18.3636 116.386 18.4962 115.996 18.7614C115.61 19.0227 115.312 19.3636 115.104 19.7841C114.896 20.2045 114.791 20.6553 114.791 21.1364V21.9091C114.791 22.5682 114.905 23.1269 115.132 23.5852C115.363 24.0398 115.683 24.3864 116.093 24.625C116.502 24.8598 116.977 24.9773 117.519 24.9773C117.871 24.9773 118.189 24.928 118.473 24.8295C118.761 24.7273 119.009 24.5758 119.218 24.375C119.426 24.1705 119.587 23.9167 119.701 23.6136L120.996 23.9773C120.86 24.4167 120.63 24.803 120.308 25.1364C119.986 25.4659 119.589 25.7235 119.115 25.9091C118.642 26.0909 118.11 26.1818 117.519 26.1818ZM125.74 26.2045C125.187 26.2045 124.685 26.1004 124.235 25.892C123.784 25.6799 123.426 25.375 123.161 24.9773C122.896 24.5758 122.763 24.0909 122.763 23.5227C122.763 23.0227 122.861 22.6174 123.058 22.3068C123.255 21.9924 123.519 21.7462 123.848 21.5682C124.178 21.3902 124.541 21.2576 124.939 21.1705C125.341 21.0795 125.744 21.0076 126.149 20.9545C126.68 20.8864 127.11 20.8352 127.439 20.8011C127.772 20.7633 128.015 20.7008 128.166 20.6136C128.322 20.5265 128.399 20.375 128.399 20.1591V20.1136C128.399 19.553 128.246 19.1174 127.939 18.8068C127.636 18.4962 127.176 18.3409 126.558 18.3409C125.918 18.3409 125.416 18.4811 125.053 18.7614C124.689 19.0417 124.433 19.3409 124.286 19.6591L123.013 19.2045C123.24 18.6742 123.543 18.2614 123.922 17.9659C124.305 17.6667 124.721 17.4583 125.172 17.3409C125.627 17.2197 126.074 17.1591 126.513 17.1591C126.793 17.1591 127.115 17.1932 127.479 17.2614C127.846 17.3258 128.201 17.4602 128.541 17.6648C128.886 17.8693 129.172 18.178 129.399 18.5909C129.627 19.0038 129.74 19.5568 129.74 20.25V26H128.399V24.8182H128.331C128.24 25.0076 128.089 25.2102 127.877 25.4261C127.665 25.642 127.382 25.8258 127.03 25.9773C126.678 26.1288 126.248 26.2045 125.74 26.2045ZM125.945 25C126.475 25 126.922 24.8958 127.286 24.6875C127.653 24.4792 127.93 24.2102 128.115 23.8807C128.305 23.5511 128.399 23.2045 128.399 22.8409V21.6136C128.343 21.6818 128.218 21.7443 128.024 21.8011C127.835 21.8542 127.615 21.9015 127.365 21.9432C127.119 21.9811 126.879 22.0152 126.644 22.0455C126.413 22.072 126.225 22.0947 126.081 22.1136C125.733 22.1591 125.407 22.233 125.104 22.3352C124.805 22.4337 124.562 22.5833 124.377 22.7841C124.195 22.9811 124.104 23.25 124.104 23.5909C124.104 24.0568 124.276 24.4091 124.621 24.6477C124.969 24.8826 125.411 25 125.945 25ZM133.438 22.8182L133.415 21.1591H133.688L137.506 17.2727H139.165L135.097 21.3864H134.983L133.438 22.8182ZM132.188 26V14.3636H133.529V26H132.188ZM137.733 26L134.324 21.6818L135.279 20.75L139.438 26H137.733ZM140.891 26V17.2727H142.232V26H140.891ZM141.573 15.8182C141.311 15.8182 141.086 15.7292 140.897 15.5511C140.711 15.3731 140.618 15.1591 140.618 14.9091C140.618 14.6591 140.711 14.4451 140.897 14.267C141.086 14.089 141.311 14 141.573 14C141.834 14 142.058 14.089 142.243 14.267C142.433 14.4451 142.527 14.6591 142.527 14.9091C142.527 15.1591 142.433 15.3731 142.243 15.5511C142.058 15.7292 141.834 15.8182 141.573 15.8182ZM146.029 20.75V26H144.688V17.2727H145.983V18.6364H146.097C146.301 18.1932 146.612 17.8371 147.029 17.5682C147.445 17.2955 147.983 17.1591 148.642 17.1591C149.233 17.1591 149.75 17.2803 150.193 17.5227C150.637 17.7614 150.981 18.125 151.227 18.6136C151.474 19.0985 151.597 19.7121 151.597 20.4545V26H150.256V20.5455C150.256 19.8598 150.078 19.3258 149.722 18.9432C149.366 18.5568 148.877 18.3636 148.256 18.3636C147.828 18.3636 147.445 18.4564 147.108 18.642C146.775 18.8277 146.512 19.0985 146.318 19.4545C146.125 19.8106 146.029 20.2424 146.029 20.75ZM157.57 29.4545C156.922 29.4545 156.365 29.3712 155.899 29.2045C155.433 29.0417 155.045 28.8258 154.735 28.5568C154.428 28.2917 154.183 28.0076 154.002 27.7045L155.07 26.9545C155.191 27.1136 155.344 27.2955 155.53 27.5C155.716 27.7083 155.969 27.8883 156.291 28.0398C156.617 28.1951 157.043 28.2727 157.57 28.2727C158.274 28.2727 158.856 28.1023 159.314 27.7614C159.772 27.4205 160.002 26.8864 160.002 26.1591V24.3864H159.888C159.79 24.5455 159.649 24.7424 159.468 24.9773C159.29 25.2083 159.032 25.4148 158.695 25.5966C158.361 25.7746 157.911 25.8636 157.343 25.8636C156.638 25.8636 156.005 25.697 155.445 25.3636C154.888 25.0303 154.447 24.5455 154.121 23.9091C153.799 23.2727 153.638 22.5 153.638 21.5909C153.638 20.697 153.795 19.9186 154.11 19.2557C154.424 18.589 154.861 18.0739 155.422 17.7102C155.983 17.3428 156.63 17.1591 157.365 17.1591C157.933 17.1591 158.384 17.2538 158.718 17.4432C159.055 17.6288 159.312 17.8409 159.49 18.0795C159.672 18.3144 159.812 18.5076 159.911 18.6591H160.047V17.2727H161.343V26.25C161.343 27 161.172 27.6098 160.831 28.0795C160.494 28.553 160.04 28.8996 159.468 29.1193C158.899 29.3428 158.267 29.4545 157.57 29.4545ZM157.524 24.6591C158.062 24.6591 158.517 24.536 158.888 24.2898C159.259 24.0436 159.541 23.6894 159.735 23.2273C159.928 22.7652 160.024 22.2121 160.024 21.5682C160.024 20.9394 159.93 20.3845 159.74 19.9034C159.551 19.4223 159.271 19.0455 158.899 18.7727C158.528 18.5 158.07 18.3636 157.524 18.3636C156.956 18.3636 156.483 18.5076 156.104 18.7955C155.729 19.0833 155.447 19.4697 155.257 19.9545C155.072 20.4394 154.979 20.9773 154.979 21.5682C154.979 22.1742 155.074 22.7102 155.263 23.1761C155.456 23.6383 155.74 24.0019 156.115 24.267C156.494 24.5284 156.964 24.6591 157.524 24.6591Z" fill="#1D2939" fill-opacity="0.7"/>
<g clip-path="url(#clip0_1_3293)">
<path d="M228.655 13.2041C228.655 11.2246 227.045 9.61426 225.066 9.61426H221.385V9.13379C221.385 6.5791 219.306 4.5 216.751 4.5H209.764C207.208 4.5 205.13 6.5791 205.13 9.13379V9.61426H201.449C199.47 9.61426 197.86 11.2246 197.86 13.2041V14.831C197.86 16.9765 198.632 18.9437 199.911 20.4736V29.8213C199.911 32.9521 202.458 35.5 205.59 35.5H220.925C224.056 35.5 226.604 32.9521 226.604 29.8213V20.4736C227.882 18.9437 228.655 16.9765 228.655 14.831V13.2041ZM208.13 9.13379C208.13 8.2334 208.863 7.5 209.764 7.5H216.751C217.652 7.5 218.385 8.2334 218.385 9.13379V9.61426H208.13V9.13379ZM200.86 13.2041C200.86 12.8789 201.124 12.6143 201.449 12.6143H225.066C225.391 12.6143 225.655 12.8789 225.655 13.2041V14.831C225.655 16.3829 225.04 17.7911 224.046 18.8346C224.042 18.8379 224.039 18.8418 224.036 18.8452C222.977 19.9509 221.491 20.6436 219.843 20.6436H219.104V20.2334C219.104 19.4053 218.432 18.7334 217.604 18.7334C216.775 18.7334 216.104 19.4053 216.104 20.2334V20.6436H210.411V20.2334C210.411 19.4053 209.74 18.7334 208.911 18.7334C208.083 18.7334 207.411 19.4053 207.411 20.2334V20.6436H206.672C205.024 20.6436 203.537 19.9509 202.479 18.8452C202.475 18.8418 202.472 18.838 202.469 18.8346C201.475 17.7911 200.86 16.3829 200.86 14.8311V13.2041ZM220.925 32.5H205.59C204.113 32.5 202.911 31.2978 202.911 29.8213V22.7888C204.054 23.3311 205.325 23.6436 206.672 23.6436H207.411V24.0537C207.411 24.8819 208.083 25.5537 208.911 25.5537C209.74 25.5537 210.411 24.8818 210.411 24.0537V23.6436H216.104V24.0537C216.104 24.8819 216.775 25.5537 217.604 25.5537C218.432 25.5537 219.104 24.8818 219.104 24.0537V23.6436H219.843C221.189 23.6436 222.461 23.3311 223.604 22.7888V29.8213C223.604 31.2978 222.402 32.5 220.925 32.5Z" fill="#F4876B"/>
</g>
<path d="M250.03 18H248.621C248.538 17.5947 248.392 17.2386 248.183 16.9318C247.979 16.625 247.729 16.3674 247.433 16.1591C247.142 15.947 246.818 15.7879 246.462 15.6818C246.106 15.5758 245.735 15.5227 245.348 15.5227C244.644 15.5227 244.005 15.7008 243.433 16.0568C242.865 16.4129 242.413 16.9375 242.076 17.6307C241.742 18.3239 241.576 19.1742 241.576 20.1818C241.576 21.1894 241.742 22.0398 242.076 22.733C242.413 23.4261 242.865 23.9508 243.433 24.3068C244.005 24.6629 244.644 24.8409 245.348 24.8409C245.735 24.8409 246.106 24.7879 246.462 24.6818C246.818 24.5758 247.142 24.4186 247.433 24.2102C247.729 23.9981 247.979 23.7386 248.183 23.4318C248.392 23.1212 248.538 22.7652 248.621 22.3636H250.03C249.924 22.9583 249.731 23.4905 249.451 23.9602C249.17 24.4299 248.822 24.8295 248.405 25.1591C247.988 25.4848 247.521 25.733 247.002 25.9034C246.486 26.0739 245.935 26.1591 245.348 26.1591C244.356 26.1591 243.473 25.9167 242.701 25.4318C241.928 24.947 241.32 24.2576 240.877 23.3636C240.433 22.4697 240.212 21.4091 240.212 20.1818C240.212 18.9545 240.433 17.8939 240.877 17C241.32 16.1061 241.928 15.4167 242.701 14.9318C243.473 14.447 244.356 14.2045 245.348 14.2045C245.935 14.2045 246.486 14.2898 247.002 14.4602C247.521 14.6307 247.988 14.8807 248.405 15.2102C248.822 15.536 249.17 15.9337 249.451 16.4034C249.731 16.8693 249.924 17.4015 250.03 18ZM254.693 26.2045C254.14 26.2045 253.638 26.1004 253.188 25.892C252.737 25.6799 252.379 25.375 252.114 24.9773C251.849 24.5758 251.716 24.0909 251.716 23.5227C251.716 23.0227 251.815 22.6174 252.012 22.3068C252.209 21.9924 252.472 21.7462 252.801 21.5682C253.131 21.3902 253.495 21.2576 253.892 21.1705C254.294 21.0795 254.697 21.0076 255.102 20.9545C255.633 20.8864 256.063 20.8352 256.392 20.8011C256.726 20.7633 256.968 20.7008 257.12 20.6136C257.275 20.5265 257.352 20.375 257.352 20.1591V20.1136C257.352 19.553 257.199 19.1174 256.892 18.8068C256.589 18.4962 256.129 18.3409 255.512 18.3409C254.871 18.3409 254.37 18.4811 254.006 18.7614C253.642 19.0417 253.387 19.3409 253.239 19.6591L251.966 19.2045C252.193 18.6742 252.496 18.2614 252.875 17.9659C253.258 17.6667 253.674 17.4583 254.125 17.3409C254.58 17.2197 255.027 17.1591 255.466 17.1591C255.746 17.1591 256.068 17.1932 256.432 17.2614C256.799 17.3258 257.154 17.4602 257.495 17.6648C257.839 17.8693 258.125 18.178 258.352 18.5909C258.58 19.0038 258.693 19.5568 258.693 20.25V26H257.352V24.8182H257.284C257.193 25.0076 257.042 25.2102 256.83 25.4261C256.618 25.642 256.335 25.8258 255.983 25.9773C255.631 26.1288 255.201 26.2045 254.693 26.2045ZM254.898 25C255.428 25 255.875 24.8958 256.239 24.6875C256.606 24.4792 256.883 24.2102 257.068 23.8807C257.258 23.5511 257.352 23.2045 257.352 22.8409V21.6136C257.296 21.6818 257.171 21.7443 256.977 21.8011C256.788 21.8542 256.568 21.9015 256.318 21.9432C256.072 21.9811 255.832 22.0152 255.597 22.0455C255.366 22.072 255.178 22.0947 255.034 22.1136C254.686 22.1591 254.36 22.233 254.057 22.3352C253.758 22.4337 253.515 22.5833 253.33 22.7841C253.148 22.9811 253.057 23.25 253.057 23.5909C253.057 24.0568 253.229 24.4091 253.574 24.6477C253.923 24.8826 254.364 25 254.898 25ZM261.141 26V17.2727H262.436V18.5909H262.527C262.686 18.1591 262.974 17.8087 263.391 17.5398C263.808 17.2708 264.277 17.1364 264.8 17.1364C264.898 17.1364 265.022 17.1383 265.169 17.142C265.317 17.1458 265.429 17.1515 265.504 17.1591V18.5227C265.459 18.5114 265.355 18.4943 265.192 18.4716C265.033 18.4451 264.864 18.4318 264.686 18.4318C264.262 18.4318 263.883 18.5208 263.55 18.6989C263.22 18.8731 262.959 19.1155 262.766 19.4261C262.576 19.733 262.482 20.0833 262.482 20.4773V26H261.141ZM270.487 26.1818C269.647 26.1818 268.921 25.9962 268.311 25.625C267.705 25.25 267.237 24.7273 266.908 24.0568C266.582 23.3826 266.419 22.5985 266.419 21.7045C266.419 20.8106 266.582 20.0227 266.908 19.3409C267.237 18.6553 267.696 18.1212 268.283 17.7386C268.874 17.3523 269.563 17.1591 270.351 17.1591C270.806 17.1591 271.254 17.2348 271.698 17.3864C272.141 17.5379 272.544 17.7841 272.908 18.125C273.272 18.4621 273.561 18.9091 273.777 19.4659C273.993 20.0227 274.101 20.7083 274.101 21.5227V22.0909H267.374V20.9318H272.737C272.737 20.4394 272.639 20 272.442 19.6136C272.249 19.2273 271.972 18.9223 271.612 18.6989C271.256 18.4754 270.836 18.3636 270.351 18.3636C269.817 18.3636 269.355 18.4962 268.965 18.7614C268.578 19.0227 268.281 19.3636 268.073 19.7841C267.864 20.2045 267.76 20.6553 267.76 21.1364V21.9091C267.76 22.5682 267.874 23.1269 268.101 23.5852C268.332 24.0398 268.652 24.3864 269.061 24.625C269.47 24.8598 269.946 24.9773 270.487 24.9773C270.84 24.9773 271.158 24.928 271.442 24.8295C271.73 24.7273 271.978 24.5758 272.186 24.375C272.395 24.1705 272.556 23.9167 272.669 23.6136L273.965 23.9773C273.828 24.4167 273.599 24.803 273.277 25.1364C272.955 25.4659 272.558 25.7235 272.084 25.9091C271.611 26.0909 271.078 26.1818 270.487 26.1818ZM279.8 26.1818C278.959 26.1818 278.234 25.9962 277.624 25.625C277.018 25.25 276.55 24.7273 276.22 24.0568C275.895 23.3826 275.732 22.5985 275.732 21.7045C275.732 20.8106 275.895 20.0227 276.22 19.3409C276.55 18.6553 277.008 18.1212 277.595 17.7386C278.186 17.3523 278.876 17.1591 279.664 17.1591C280.118 17.1591 280.567 17.2348 281.01 17.3864C281.453 17.5379 281.857 17.7841 282.22 18.125C282.584 18.4621 282.874 18.9091 283.09 19.4659C283.306 20.0227 283.414 20.7083 283.414 21.5227V22.0909H276.686V20.9318H282.05C282.05 20.4394 281.951 20 281.754 19.6136C281.561 19.2273 281.285 18.9223 280.925 18.6989C280.569 18.4754 280.148 18.3636 279.664 18.3636C279.129 18.3636 278.667 18.4962 278.277 18.7614C277.891 19.0227 277.593 19.3636 277.385 19.7841C277.177 20.2045 277.073 20.6553 277.073 21.1364V21.9091C277.073 22.5682 277.186 23.1269 277.414 23.5852C277.645 24.0398 277.965 24.3864 278.374 24.625C278.783 24.8598 279.258 24.9773 279.8 24.9773C280.152 24.9773 280.47 24.928 280.754 24.8295C281.042 24.7273 281.29 24.5758 281.499 24.375C281.707 24.1705 281.868 23.9167 281.982 23.6136L283.277 23.9773C283.141 24.4167 282.912 24.803 282.59 25.1364C282.268 25.4659 281.87 25.7235 281.397 25.9091C280.923 26.0909 280.391 26.1818 279.8 26.1818ZM285.453 26V17.2727H286.749V18.5909H286.84C286.999 18.1591 287.287 17.8087 287.703 17.5398C288.12 17.2708 288.59 17.1364 289.112 17.1364C289.211 17.1364 289.334 17.1383 289.482 17.142C289.629 17.1458 289.741 17.1515 289.817 17.1591V18.5227C289.772 18.5114 289.667 18.4943 289.504 18.4716C289.345 18.4451 289.177 18.4318 288.999 18.4318C288.575 18.4318 288.196 18.5208 287.862 18.6989C287.533 18.8731 287.272 19.1155 287.078 19.4261C286.889 19.733 286.794 20.0833 286.794 20.4773V26H285.453ZM295.766 20.3864V21.6364H290.675V20.3864H295.766ZM308.125 20.1818C308.125 21.4091 307.904 22.4697 307.46 23.3636C307.017 24.2576 306.409 24.947 305.637 25.4318C304.864 25.9167 303.981 26.1591 302.989 26.1591C301.996 26.1591 301.114 25.9167 300.341 25.4318C299.568 24.947 298.96 24.2576 298.517 23.3636C298.074 22.4697 297.852 21.4091 297.852 20.1818C297.852 18.9545 298.074 17.8939 298.517 17C298.96 16.1061 299.568 15.4167 300.341 14.9318C301.114 14.447 301.996 14.2045 302.989 14.2045C303.981 14.2045 304.864 14.447 305.637 14.9318C306.409 15.4167 307.017 16.1061 307.46 17C307.904 17.8939 308.125 18.9545 308.125 20.1818ZM306.762 20.1818C306.762 19.1742 306.593 18.3239 306.256 17.6307C305.923 16.9375 305.47 16.4129 304.898 16.0568C304.33 15.7008 303.693 15.5227 302.989 15.5227C302.284 15.5227 301.646 15.7008 301.074 16.0568C300.506 16.4129 300.053 16.9375 299.716 17.6307C299.383 18.3239 299.216 19.1742 299.216 20.1818C299.216 21.1894 299.383 22.0398 299.716 22.733C300.053 23.4261 300.506 23.9508 301.074 24.3068C301.646 24.6629 302.284 24.8409 302.989 24.8409C303.693 24.8409 304.33 24.6629 304.898 24.3068C305.47 23.9508 305.923 23.4261 306.256 22.733C306.593 22.0398 306.762 21.1894 306.762 20.1818ZM310.313 26V17.2727H311.608V18.5909H311.699C311.858 18.1591 312.146 17.8087 312.563 17.5398C312.979 17.2708 313.449 17.1364 313.972 17.1364C314.07 17.1364 314.193 17.1383 314.341 17.142C314.489 17.1458 314.601 17.1515 314.676 17.1591V18.5227C314.631 18.5114 314.527 18.4943 314.364 18.4716C314.205 18.4451 314.036 18.4318 313.858 18.4318C313.434 18.4318 313.055 18.5208 312.722 18.6989C312.392 18.8731 312.131 19.1155 311.938 19.4261C311.748 19.733 311.654 20.0833 311.654 20.4773V26H310.313ZM316.266 26V17.2727H317.607V26H316.266ZM316.948 15.8182C316.686 15.8182 316.461 15.7292 316.272 15.5511C316.086 15.3731 315.993 15.1591 315.993 14.9091C315.993 14.6591 316.086 14.4451 316.272 14.267C316.461 14.089 316.686 14 316.948 14C317.209 14 317.433 14.089 317.618 14.267C317.808 14.4451 317.902 14.6591 317.902 14.9091C317.902 15.1591 317.808 15.3731 317.618 15.5511C317.433 15.7292 317.209 15.8182 316.948 15.8182ZM323.722 26.1818C322.881 26.1818 322.156 25.9962 321.546 25.625C320.94 25.25 320.472 24.7273 320.142 24.0568C319.817 23.3826 319.654 22.5985 319.654 21.7045C319.654 20.8106 319.817 20.0227 320.142 19.3409C320.472 18.6553 320.93 18.1212 321.517 17.7386C322.108 17.3523 322.798 17.1591 323.585 17.1591C324.04 17.1591 324.489 17.2348 324.932 17.3864C325.375 17.5379 325.779 17.7841 326.142 18.125C326.506 18.4621 326.796 18.9091 327.012 19.4659C327.227 20.0227 327.335 20.7083 327.335 21.5227V22.0909H320.608V20.9318H325.972C325.972 20.4394 325.873 20 325.676 19.6136C325.483 19.2273 325.207 18.9223 324.847 18.6989C324.491 18.4754 324.07 18.3636 323.585 18.3636C323.051 18.3636 322.589 18.4962 322.199 18.7614C321.813 19.0227 321.515 19.3636 321.307 19.7841C321.099 20.2045 320.995 20.6553 320.995 21.1364V21.9091C320.995 22.5682 321.108 23.1269 321.335 23.5852C321.567 24.0398 321.887 24.3864 322.296 24.625C322.705 24.8598 323.18 24.9773 323.722 24.9773C324.074 24.9773 324.392 24.928 324.676 24.8295C324.964 24.7273 325.212 24.5758 325.421 24.375C325.629 24.1705 325.79 23.9167 325.904 23.6136L327.199 23.9773C327.063 24.4167 326.834 24.803 326.512 25.1364C326.19 25.4659 325.792 25.7235 325.318 25.9091C324.845 26.0909 324.313 26.1818 323.722 26.1818ZM330.716 20.75V26H329.375V17.2727H330.671V18.6364H330.784C330.989 18.1932 331.299 17.8371 331.716 17.5682C332.133 17.2955 332.671 17.1591 333.33 17.1591C333.921 17.1591 334.438 17.2803 334.881 17.5227C335.324 17.7614 335.669 18.125 335.915 18.6136C336.161 19.0985 336.284 19.7121 336.284 20.4545V26H334.943V20.5455C334.943 19.8598 334.765 19.3258 334.409 18.9432C334.053 18.5568 333.565 18.3636 332.943 18.3636C332.515 18.3636 332.133 18.4564 331.796 18.642C331.462 18.8277 331.199 19.0985 331.006 19.4545C330.813 19.8106 330.716 20.2424 330.716 20.75ZM342.53 17.2727V18.4091H338.007V17.2727H342.53ZM339.326 15.1818H340.666V23.5C340.666 23.8788 340.721 24.1629 340.831 24.3523C340.945 24.5379 341.089 24.6629 341.263 24.7273C341.441 24.7879 341.629 24.8182 341.826 24.8182C341.973 24.8182 342.094 24.8106 342.189 24.7955C342.284 24.7765 342.36 24.7614 342.416 24.75L342.689 25.9545C342.598 25.9886 342.471 26.0227 342.308 26.0568C342.146 26.0947 341.939 26.1136 341.689 26.1136C341.31 26.1136 340.939 26.0322 340.576 25.8693C340.216 25.7064 339.916 25.4583 339.678 25.125C339.443 24.7917 339.326 24.3712 339.326 23.8636V15.1818ZM348.112 26.1818C347.272 26.1818 346.546 25.9962 345.936 25.625C345.33 25.25 344.862 24.7273 344.533 24.0568C344.207 23.3826 344.044 22.5985 344.044 21.7045C344.044 20.8106 344.207 20.0227 344.533 19.3409C344.862 18.6553 345.321 18.1212 345.908 17.7386C346.499 17.3523 347.188 17.1591 347.976 17.1591C348.431 17.1591 348.879 17.2348 349.323 17.3864C349.766 17.5379 350.169 17.7841 350.533 18.125C350.897 18.4621 351.186 18.9091 351.402 19.4659C351.618 20.0227 351.726 20.7083 351.726 21.5227V22.0909H344.999V20.9318H350.362C350.362 20.4394 350.264 20 350.067 19.6136C349.874 19.2273 349.597 18.9223 349.237 18.6989C348.881 18.4754 348.461 18.3636 347.976 18.3636C347.442 18.3636 346.98 18.4962 346.59 18.7614C346.203 19.0227 345.906 19.3636 345.698 19.7841C345.489 20.2045 345.385 20.6553 345.385 21.1364V21.9091C345.385 22.5682 345.499 23.1269 345.726 23.5852C345.957 24.0398 346.277 24.3864 346.686 24.625C347.095 24.8598 347.571 24.9773 348.112 24.9773C348.465 24.9773 348.783 24.928 349.067 24.8295C349.355 24.7273 349.603 24.5758 349.811 24.375C350.02 24.1705 350.181 23.9167 350.294 23.6136L351.59 23.9773C351.453 24.4167 351.224 24.803 350.902 25.1364C350.58 25.4659 350.183 25.7235 349.709 25.9091C349.236 26.0909 348.703 26.1818 348.112 26.1818ZM357.061 26.1818C356.334 26.1818 355.692 25.9981 355.135 25.6307C354.578 25.2595 354.143 24.7367 353.828 24.0625C353.514 23.3845 353.357 22.5833 353.357 21.6591C353.357 20.7424 353.514 19.947 353.828 19.2727C354.143 18.5985 354.58 18.0777 355.141 17.7102C355.701 17.3428 356.349 17.1591 357.084 17.1591C357.652 17.1591 358.101 17.2538 358.431 17.4432C358.764 17.6288 359.018 17.8409 359.192 18.0795C359.37 18.3144 359.508 18.5076 359.607 18.6591H359.72V14.3636H361.061V26H359.766V24.6591H359.607C359.508 24.8182 359.368 25.0189 359.186 25.2614C359.004 25.5 358.745 25.714 358.408 25.9034C358.071 26.089 357.622 26.1818 357.061 26.1818ZM357.243 24.9773C357.781 24.9773 358.236 24.8371 358.607 24.5568C358.978 24.2727 359.26 23.8807 359.453 23.3807C359.647 22.8769 359.743 22.2955 359.743 21.6364C359.743 20.9848 359.648 20.4148 359.459 19.9261C359.27 19.4337 358.989 19.0511 358.618 18.7784C358.247 18.5019 357.789 18.3636 357.243 18.3636C356.675 18.3636 356.201 18.5095 355.823 18.8011C355.448 19.089 355.165 19.4811 354.976 19.9773C354.79 20.4697 354.698 21.0227 354.698 21.6364C354.698 22.2576 354.792 22.822 354.982 23.3295C355.175 23.8333 355.459 24.2348 355.834 24.5341C356.213 24.8295 356.683 24.9773 357.243 24.9773Z" fill="#1D2939" fill-opacity="0.7"/>
<path d="M414.257 8V7C414.257 6.73478 414.152 6.48043 413.964 6.29289C413.777 6.10536 413.523 6 413.257 6C412.992 6 412.738 6.10536 412.55 6.29289C412.363 6.48043 412.257 6.73478 412.257 7V8C412.257 8.26522 412.363 8.51957 412.55 8.70711C412.738 8.89464 412.992 9 413.257 9C413.523 9 413.777 8.89464 413.964 8.70711C414.152 8.51957 414.257 8.26522 414.257 8ZM404.767 10.1C404.576 9.93617 404.33 9.85057 404.078 9.86029C403.827 9.87001 403.588 9.97434 403.41 10.1524C403.232 10.3305 403.127 10.5693 403.118 10.8209C403.108 11.0726 403.193 11.3187 403.357 11.51L404.067 12.22C404.259 12.3838 404.505 12.4694 404.756 12.4597C405.008 12.45 405.247 12.3457 405.425 12.1676C405.603 11.9895 405.707 11.7507 405.717 11.4991C405.727 11.2474 405.641 11.0013 405.477 10.81L404.767 10.1ZM401.257 21C401.523 21 401.777 20.8946 401.964 20.7071C402.152 20.5196 402.257 20.2652 402.257 20C402.257 19.7348 402.152 19.4804 401.964 19.2929C401.777 19.1054 401.523 19 401.257 19H400.257C399.992 19 399.738 19.1054 399.55 19.2929C399.363 19.4804 399.257 19.7348 399.257 20C399.257 20.2652 399.363 20.5196 399.55 20.7071C399.738 20.8946 399.992 21 400.257 21H401.257ZM403.357 29.9C403.545 30.0862 403.798 30.1908 404.062 30.1908C404.327 30.1908 404.58 30.0862 404.767 29.9L405.477 29.19C405.641 28.9987 405.727 28.7526 405.717 28.5009C405.707 28.2493 405.603 28.0105 405.425 27.8324C405.247 27.6543 405.008 27.55 404.756 27.5403C404.505 27.5306 404.259 27.6162 404.067 27.78L403.357 28.49C403.171 28.6774 403.067 28.9308 403.067 29.195C403.067 29.4592 403.171 29.7126 403.357 29.9ZM422.447 27.78C422.256 27.6162 422.01 27.5306 421.758 27.5403C421.507 27.55 421.268 27.6543 421.09 27.8324C420.912 28.0105 420.807 28.2493 420.798 28.5009C420.788 28.7526 420.873 28.9987 421.037 29.19L421.747 29.9C421.939 30.0638 422.185 30.1494 422.436 30.1397C422.688 30.13 422.927 30.0257 423.105 29.8476C423.283 29.6695 423.387 29.4307 423.397 29.1791C423.407 28.9274 423.321 28.6813 423.157 28.49L422.447 27.78ZM426.257 19H425.257C424.992 19 424.738 19.1054 424.55 19.2929C424.363 19.4804 424.257 19.7348 424.257 20C424.257 20.2652 424.363 20.5196 424.55 20.7071C424.738 20.8946 424.992 21 425.257 21H426.257C426.523 21 426.777 20.8946 426.964 20.7071C427.152 20.5196 427.257 20.2652 427.257 20C427.257 19.7348 427.152 19.4804 426.964 19.2929C426.777 19.1054 426.523 19 426.257 19ZM423.157 10.1C422.97 9.91375 422.717 9.80921 422.452 9.80921C422.188 9.80921 421.935 9.91375 421.747 10.1L421.037 10.81C420.933 10.8996 420.848 11.01 420.788 11.134C420.728 11.2581 420.694 11.3932 420.689 11.5309C420.683 11.6687 420.706 11.806 420.757 11.9343C420.807 12.0626 420.883 12.1792 420.981 12.2766C421.078 12.3741 421.195 12.4504 421.323 12.5006C421.451 12.5509 421.589 12.5741 421.726 12.5688C421.864 12.5635 421.999 12.5297 422.123 12.4697C422.247 12.4097 422.358 12.3247 422.447 12.22L423.157 11.51C423.344 11.3226 423.448 11.0692 423.448 10.805C423.448 10.5408 423.344 10.2874 423.157 10.1ZM404.257 20C404.26 21.4778 404.626 22.9324 405.323 24.2352C406.021 25.538 407.029 26.649 408.257 27.47V33C408.257 33.2652 408.363 33.5196 408.55 33.7071C408.738 33.8946 408.992 34 409.257 34H417.257C417.523 34 417.777 33.8946 417.964 33.7071C418.152 33.5196 418.257 33.2652 418.257 33V27.47C419.551 26.6059 420.598 25.4213 421.297 24.0318C421.996 22.6423 422.323 21.0954 422.246 19.5419C422.169 17.9883 421.691 16.4812 420.858 15.1676C420.026 13.8539 418.866 12.7785 417.494 12.0463C416.122 11.3141 414.583 10.95 413.028 10.9896C411.473 11.0292 409.955 11.4711 408.622 12.2723C407.289 13.0734 406.186 14.2064 405.421 15.5607C404.656 16.9151 404.255 18.4446 404.257 20ZM410.257 32V30H416.257V32H410.257ZM413.257 13C414.798 13.0008 416.295 13.5096 417.516 14.4476C418.738 15.3855 419.616 16.7002 420.015 18.188C420.414 19.6757 420.311 21.2534 419.722 22.6766C419.133 24.0998 418.091 25.289 416.757 26.06C416.605 26.1481 416.478 26.275 416.39 26.4277C416.302 26.5805 416.257 26.7538 416.257 26.93V28H414.257V22H416.257C416.523 22 416.777 21.8946 416.964 21.7071C417.152 21.5196 417.257 21.2652 417.257 21C417.257 20.7348 417.152 20.4804 416.964 20.2929C416.777 20.1054 416.523 20 416.257 20H410.257C409.992 20 409.738 20.1054 409.55 20.2929C409.363 20.4804 409.257 20.7348 409.257 21C409.257 21.2652 409.363 21.5196 409.55 21.7071C409.738 21.8946 409.992 22 410.257 22H412.257V28H410.257V26.92C410.258 26.7438 410.212 26.5705 410.124 26.4177C410.037 26.265 409.91 26.1381 409.757 26.05C408.429 25.2769 407.392 24.088 406.806 22.6668C406.221 21.2457 406.119 19.6713 406.517 18.1867C406.915 16.7021 407.791 15.3898 409.009 14.4524C410.227 13.515 411.72 13.0046 413.257 13Z" fill="#B4708D"/>
<path d="M450.03 18H448.621C448.538 17.5947 448.392 17.2386 448.183 16.9318C447.979 16.625 447.729 16.3674 447.433 16.1591C447.142 15.947 446.818 15.7879 446.462 15.6818C446.106 15.5758 445.735 15.5227 445.348 15.5227C444.644 15.5227 444.005 15.7008 443.433 16.0568C442.865 16.4129 442.413 16.9375 442.076 17.6307C441.742 18.3239 441.576 19.1742 441.576 20.1818C441.576 21.1894 441.742 22.0398 442.076 22.733C442.413 23.4261 442.865 23.9508 443.433 24.3068C444.005 24.6629 444.644 24.8409 445.348 24.8409C445.735 24.8409 446.106 24.7879 446.462 24.6818C446.818 24.5758 447.142 24.4186 447.433 24.2102C447.729 23.9981 447.979 23.7386 448.183 23.4318C448.392 23.1212 448.538 22.7652 448.621 22.3636H450.03C449.924 22.9583 449.731 23.4905 449.451 23.9602C449.17 24.4299 448.822 24.8295 448.405 25.1591C447.988 25.4848 447.521 25.733 447.002 25.9034C446.486 26.0739 445.935 26.1591 445.348 26.1591C444.356 26.1591 443.473 25.9167 442.701 25.4318C441.928 24.947 441.32 24.2576 440.877 23.3636C440.433 22.4697 440.212 21.4091 440.212 20.1818C440.212 18.9545 440.433 17.8939 440.877 17C441.32 16.1061 441.928 15.4167 442.701 14.9318C443.473 14.447 444.356 14.2045 445.348 14.2045C445.935 14.2045 446.486 14.2898 447.002 14.4602C447.521 14.6307 447.988 14.8807 448.405 15.2102C448.822 15.536 449.17 15.9337 449.451 16.4034C449.731 16.8693 449.924 17.4015 450.03 18ZM452.125 26V17.2727H453.421V18.5909H453.512C453.671 18.1591 453.959 17.8087 454.375 17.5398C454.792 17.2708 455.262 17.1364 455.784 17.1364C455.883 17.1364 456.006 17.1383 456.154 17.142C456.301 17.1458 456.413 17.1515 456.489 17.1591V18.5227C456.443 18.5114 456.339 18.4943 456.176 18.4716C456.017 18.4451 455.849 18.4318 455.671 18.4318C455.246 18.4318 454.868 18.5208 454.534 18.6989C454.205 18.8731 453.943 19.1155 453.75 19.4261C453.561 19.733 453.466 20.0833 453.466 20.4773V26H452.125ZM461.472 26.1818C460.631 26.1818 459.906 25.9962 459.296 25.625C458.69 25.25 458.222 24.7273 457.892 24.0568C457.567 23.3826 457.404 22.5985 457.404 21.7045C457.404 20.8106 457.567 20.0227 457.892 19.3409C458.222 18.6553 458.68 18.1212 459.267 17.7386C459.858 17.3523 460.548 17.1591 461.335 17.1591C461.79 17.1591 462.239 17.2348 462.682 17.3864C463.125 17.5379 463.529 17.7841 463.892 18.125C464.256 18.4621 464.546 18.9091 464.762 19.4659C464.977 20.0227 465.085 20.7083 465.085 21.5227V22.0909H458.358V20.9318H463.722C463.722 20.4394 463.623 20 463.426 19.6136C463.233 19.2273 462.957 18.9223 462.597 18.6989C462.241 18.4754 461.82 18.3636 461.335 18.3636C460.801 18.3636 460.339 18.4962 459.949 18.7614C459.563 19.0227 459.265 19.3636 459.057 19.7841C458.849 20.2045 458.745 20.6553 458.745 21.1364V21.9091C458.745 22.5682 458.858 23.1269 459.085 23.5852C459.317 24.0398 459.637 24.3864 460.046 24.625C460.455 24.8598 460.93 24.9773 461.472 24.9773C461.824 24.9773 462.142 24.928 462.426 24.8295C462.714 24.7273 462.962 24.5758 463.171 24.375C463.379 24.1705 463.54 23.9167 463.654 23.6136L464.949 23.9773C464.813 24.4167 464.584 24.803 464.262 25.1364C463.94 25.4659 463.542 25.7235 463.068 25.9091C462.595 26.0909 462.063 26.1818 461.472 26.1818ZM469.693 26.2045C469.14 26.2045 468.638 26.1004 468.188 25.892C467.737 25.6799 467.379 25.375 467.114 24.9773C466.849 24.5758 466.716 24.0909 466.716 23.5227C466.716 23.0227 466.815 22.6174 467.012 22.3068C467.209 21.9924 467.472 21.7462 467.801 21.5682C468.131 21.3902 468.495 21.2576 468.892 21.1705C469.294 21.0795 469.697 21.0076 470.102 20.9545C470.633 20.8864 471.063 20.8352 471.392 20.8011C471.726 20.7633 471.968 20.7008 472.12 20.6136C472.275 20.5265 472.352 20.375 472.352 20.1591V20.1136C472.352 19.553 472.199 19.1174 471.892 18.8068C471.589 18.4962 471.129 18.3409 470.512 18.3409C469.871 18.3409 469.37 18.4811 469.006 18.7614C468.642 19.0417 468.387 19.3409 468.239 19.6591L466.966 19.2045C467.193 18.6742 467.496 18.2614 467.875 17.9659C468.258 17.6667 468.674 17.4583 469.125 17.3409C469.58 17.2197 470.027 17.1591 470.466 17.1591C470.746 17.1591 471.068 17.1932 471.432 17.2614C471.799 17.3258 472.154 17.4602 472.495 17.6648C472.839 17.8693 473.125 18.178 473.352 18.5909C473.58 19.0038 473.693 19.5568 473.693 20.25V26H472.352V24.8182H472.284C472.193 25.0076 472.042 25.2102 471.83 25.4261C471.618 25.642 471.335 25.8258 470.983 25.9773C470.631 26.1288 470.201 26.2045 469.693 26.2045ZM469.898 25C470.428 25 470.875 24.8958 471.239 24.6875C471.606 24.4792 471.883 24.2102 472.068 23.8807C472.258 23.5511 472.352 23.2045 472.352 22.8409V21.6136C472.296 21.6818 472.171 21.7443 471.977 21.8011C471.788 21.8542 471.568 21.9015 471.318 21.9432C471.072 21.9811 470.832 22.0152 470.597 22.0455C470.366 22.072 470.178 22.0947 470.034 22.1136C469.686 22.1591 469.36 22.233 469.057 22.3352C468.758 22.4337 468.515 22.5833 468.33 22.7841C468.148 22.9811 468.057 23.25 468.057 23.5909C468.057 24.0568 468.229 24.4091 468.574 24.6477C468.923 24.8826 469.364 25 469.898 25ZM479.936 17.2727V18.4091H475.414V17.2727H479.936ZM476.732 15.1818H478.073V23.5C478.073 23.8788 478.128 24.1629 478.237 24.3523C478.351 24.5379 478.495 24.6629 478.669 24.7273C478.847 24.7879 479.035 24.8182 479.232 24.8182C479.379 24.8182 479.501 24.8106 479.595 24.7955C479.69 24.7765 479.766 24.7614 479.823 24.75L480.095 25.9545C480.004 25.9886 479.878 26.0227 479.715 26.0568C479.552 26.0947 479.345 26.1136 479.095 26.1136C478.717 26.1136 478.345 26.0322 477.982 25.8693C477.622 25.7064 477.323 25.4583 477.084 25.125C476.849 24.7917 476.732 24.3712 476.732 23.8636V15.1818ZM481.953 26V17.2727H483.294V26H481.953ZM482.635 15.8182C482.374 15.8182 482.148 15.7292 481.959 15.5511C481.773 15.3731 481.681 15.1591 481.681 14.9091C481.681 14.6591 481.773 14.4451 481.959 14.267C482.148 14.089 482.374 14 482.635 14C482.897 14 483.12 14.089 483.306 14.267C483.495 14.4451 483.59 14.6591 483.59 14.9091C483.59 15.1591 483.495 15.3731 483.306 15.5511C483.12 15.7292 482.897 15.8182 482.635 15.8182ZM492.887 17.2727L489.659 26H488.296L485.068 17.2727H486.523L488.932 24.2273H489.023L491.432 17.2727H492.887ZM498.003 26.1818C497.162 26.1818 496.437 25.9962 495.827 25.625C495.221 25.25 494.753 24.7273 494.424 24.0568C494.098 23.3826 493.935 22.5985 493.935 21.7045C493.935 20.8106 494.098 20.0227 494.424 19.3409C494.753 18.6553 495.211 18.1212 495.799 17.7386C496.389 17.3523 497.079 17.1591 497.867 17.1591C498.321 17.1591 498.77 17.2348 499.213 17.3864C499.656 17.5379 500.06 17.7841 500.424 18.125C500.787 18.4621 501.077 18.9091 501.293 19.4659C501.509 20.0227 501.617 20.7083 501.617 21.5227V22.0909H494.889V20.9318H500.253C500.253 20.4394 500.155 20 499.958 19.6136C499.764 19.2273 499.488 18.9223 499.128 18.6989C498.772 18.4754 498.352 18.3636 497.867 18.3636C497.333 18.3636 496.87 18.4962 496.48 18.7614C496.094 19.0227 495.797 19.3636 495.588 19.7841C495.38 20.2045 495.276 20.6553 495.276 21.1364V21.9091C495.276 22.5682 495.389 23.1269 495.617 23.5852C495.848 24.0398 496.168 24.3864 496.577 24.625C496.986 24.8598 497.461 24.9773 498.003 24.9773C498.355 24.9773 498.674 24.928 498.958 24.8295C499.245 24.7273 499.494 24.5758 499.702 24.375C499.91 24.1705 500.071 23.9167 500.185 23.6136L501.48 23.9773C501.344 24.4167 501.115 24.803 500.793 25.1364C500.471 25.4659 500.073 25.7235 499.6 25.9091C499.126 26.0909 498.594 26.1818 498.003 26.1818ZM507.702 15.6136V14.3636H516.429V15.6136H512.77V26H511.361V15.6136H507.702ZM519.763 20.75V26H518.422V14.3636H519.763V18.6364H519.877C520.081 18.1856 520.388 17.8277 520.797 17.5625C521.21 17.2936 521.759 17.1591 522.445 17.1591C523.04 17.1591 523.56 17.2784 524.007 17.517C524.454 17.7519 524.801 18.1136 525.047 18.6023C525.297 19.0871 525.422 19.7045 525.422 20.4545V26H524.081V20.5455C524.081 19.8523 523.901 19.3163 523.541 18.9375C523.185 18.5549 522.691 18.3636 522.058 18.3636C521.619 18.3636 521.225 18.4564 520.877 18.642C520.532 18.8277 520.259 19.0985 520.058 19.4545C519.861 19.8106 519.763 20.2424 519.763 20.75ZM527.875 26V17.2727H529.216V26H527.875ZM528.557 15.8182C528.296 15.8182 528.07 15.7292 527.881 15.5511C527.695 15.3731 527.602 15.1591 527.602 14.9091C527.602 14.6591 527.695 14.4451 527.881 14.267C528.07 14.089 528.296 14 528.557 14C528.818 14 529.042 14.089 529.227 14.267C529.417 14.4451 529.512 14.6591 529.512 14.9091C529.512 15.1591 529.417 15.3731 529.227 15.5511C529.042 15.7292 528.818 15.8182 528.557 15.8182ZM533.013 20.75V26H531.672V17.2727H532.968V18.6364H533.081C533.286 18.1932 533.596 17.8371 534.013 17.5682C534.43 17.2955 534.968 17.1591 535.627 17.1591C536.218 17.1591 536.735 17.2803 537.178 17.5227C537.621 17.7614 537.966 18.125 538.212 18.6136C538.458 19.0985 538.581 19.7121 538.581 20.4545V26H537.24V20.5455C537.24 19.8598 537.062 19.3258 536.706 18.9432C536.35 18.5568 535.861 18.3636 535.24 18.3636C534.812 18.3636 534.43 18.4564 534.093 18.642C533.759 18.8277 533.496 19.0985 533.303 19.4545C533.11 19.8106 533.013 20.2424 533.013 20.75ZM542.281 22.8182L542.259 21.1591H542.531L546.35 17.2727H548.009L543.941 21.3864H543.827L542.281 22.8182ZM541.031 26V14.3636H542.372V26H541.031ZM546.577 26L543.168 21.6818L544.122 20.75L548.281 26H546.577ZM549.735 26V17.2727H551.076V26H549.735ZM550.416 15.8182C550.155 15.8182 549.93 15.7292 549.74 15.5511C549.555 15.3731 549.462 15.1591 549.462 14.9091C549.462 14.6591 549.555 14.4451 549.74 14.267C549.93 14.089 550.155 14 550.416 14C550.678 14 550.901 14.089 551.087 14.267C551.276 14.4451 551.371 14.6591 551.371 14.9091C551.371 15.1591 551.276 15.3731 551.087 15.5511C550.901 15.7292 550.678 15.8182 550.416 15.8182ZM554.872 20.75V26H553.531V17.2727H554.827V18.6364H554.941C555.145 18.1932 555.456 17.8371 555.872 17.5682C556.289 17.2955 556.827 17.1591 557.486 17.1591C558.077 17.1591 558.594 17.2803 559.037 17.5227C559.48 17.7614 559.825 18.125 560.071 18.6136C560.317 19.0985 560.441 19.7121 560.441 20.4545V26H559.1V20.5455C559.1 19.8598 558.922 19.3258 558.566 18.9432C558.21 18.5568 557.721 18.3636 557.1 18.3636C556.672 18.3636 556.289 18.4564 555.952 18.642C555.619 18.8277 555.355 19.0985 555.162 19.4545C554.969 19.8106 554.872 20.2424 554.872 20.75ZM566.414 29.4545C565.766 29.4545 565.209 29.3712 564.743 29.2045C564.277 29.0417 563.889 28.8258 563.578 28.5568C563.272 28.2917 563.027 28.0076 562.845 27.7045L563.914 26.9545C564.035 27.1136 564.188 27.2955 564.374 27.5C564.559 27.7083 564.813 27.8883 565.135 28.0398C565.461 28.1951 565.887 28.2727 566.414 28.2727C567.118 28.2727 567.7 28.1023 568.158 27.7614C568.616 27.4205 568.845 26.8864 568.845 26.1591V24.3864H568.732C568.633 24.5455 568.493 24.7424 568.311 24.9773C568.133 25.2083 567.876 25.4148 567.539 25.5966C567.205 25.7746 566.754 25.8636 566.186 25.8636C565.482 25.8636 564.849 25.697 564.289 25.3636C563.732 25.0303 563.29 24.5455 562.965 23.9091C562.643 23.2727 562.482 22.5 562.482 21.5909C562.482 20.697 562.639 19.9186 562.953 19.2557C563.268 18.589 563.705 18.0739 564.266 17.7102C564.826 17.3428 565.474 17.1591 566.209 17.1591C566.777 17.1591 567.228 17.2538 567.561 17.4432C567.898 17.6288 568.156 17.8409 568.334 18.0795C568.516 18.3144 568.656 18.5076 568.754 18.6591H568.891V17.2727H570.186V26.25C570.186 27 570.016 27.6098 569.675 28.0795C569.338 28.553 568.883 28.8996 568.311 29.1193C567.743 29.3428 567.111 29.4545 566.414 29.4545ZM566.368 24.6591C566.906 24.6591 567.361 24.536 567.732 24.2898C568.103 24.0436 568.385 23.6894 568.578 23.2273C568.772 22.7652 568.868 22.2121 568.868 21.5682C568.868 20.9394 568.773 20.3845 568.584 19.9034C568.395 19.4223 568.114 19.0455 567.743 18.7727C567.372 18.5 566.914 18.3636 566.368 18.3636C565.8 18.3636 565.326 18.5076 564.948 18.7955C564.573 19.0833 564.29 19.4697 564.101 19.9545C563.915 20.4394 563.823 20.9773 563.823 21.5682C563.823 22.1742 563.917 22.7102 564.107 23.1761C564.3 23.6383 564.584 24.0019 564.959 24.267C565.338 24.5284 565.808 24.6591 566.368 24.6591Z" fill="#1D2939" fill-opacity="0.7"/>
<defs>
<clipPath id="clip0_1_3293">
<rect width="32" height="32" fill="white" transform="translate(197.257 4)"/>
</clipPath>
</defs>
</svg>
